<svg width="481" height="65" viewBox="0 0 481 65" fill="none" xmlns="http://www.w3.org/2000/svg">
<path d="M41 13H14L27 26V39H40V52L27 65H0V52H27L14 39V26H1V13L14 0H41V13ZM83 13V25L70 38H57V64H44V0H70L83 13ZM126.561 16C128.753 16 130.703 16.3699 132.408 17.1094C134.114 17.8385 135.465 18.8386 136.462 20.1094C137.47 21.3802 138.001 22.8229 138.057 24.4375H134.069C133.87 22.8543 133.062 21.625 131.645 20.75C130.227 19.8751 128.488 19.4376 126.428 19.4375C124.922 19.4375 123.603 19.6668 122.474 20.125C121.355 20.5833 120.479 21.2135 119.848 22.0156C119.228 22.8177 118.918 23.7293 118.918 24.75C118.918 25.6041 119.134 26.3386 119.565 26.9531C120.008 27.5573 120.574 28.0625 121.261 28.4688C121.947 28.8645 122.667 29.1928 123.42 29.4531C124.173 29.7031 124.866 29.9063 125.497 30.0625L128.952 30.9375C129.838 31.1562 130.825 31.4583 131.91 31.8438C133.007 32.2291 134.053 32.7553 135.05 33.4219C136.058 34.0781 136.889 34.9219 137.542 35.9531C138.195 36.9844 138.522 38.25 138.522 39.75C138.522 41.4791 138.041 43.0417 137.077 44.4375C136.125 45.8333 134.728 46.9427 132.89 47.7656C131.062 48.5884 128.841 49 126.228 49C123.791 49 121.682 48.6301 119.898 47.8906C118.126 47.151 116.73 46.1198 115.711 44.7969C114.703 43.474 114.133 41.9374 114 40.1875H118.253C118.364 41.3958 118.796 42.3959 119.549 43.1875C120.313 43.9687 121.277 44.5521 122.439 44.9375C123.613 45.3125 124.876 45.5 126.228 45.5C127.8 45.5 129.213 45.2604 130.465 44.7812C131.716 44.2917 132.708 43.6145 133.438 42.75C134.169 41.875 134.535 40.8541 134.535 39.6875C134.535 38.625 134.219 37.7604 133.588 37.0938C132.957 36.4271 132.126 35.8854 131.096 35.4688C130.066 35.0521 128.953 34.6875 127.757 34.375L123.569 33.25C120.911 32.5313 118.806 31.5052 117.256 30.1719C115.705 28.8386 114.931 27.0936 114.931 24.9375C114.931 23.1458 115.446 21.5833 116.476 20.25C117.517 18.9063 118.912 17.8646 120.662 17.125C122.423 16.375 124.39 16 126.561 16ZM211.019 16C212.735 16 214.347 16.2344 215.854 16.7031C217.371 17.1719 218.739 17.8594 219.957 18.7656C221.175 19.6614 222.194 20.7553 223.014 22.0469C223.833 23.3281 224.398 24.7917 224.708 26.4375H220.588C220.344 25.3229 219.918 24.3437 219.309 23.5C218.711 22.6564 217.98 21.9479 217.116 21.375C216.263 20.7917 215.316 20.3542 214.274 20.0625C213.233 19.7709 212.148 19.625 211.019 19.625C208.959 19.625 207.092 20.1147 205.42 21.0938C203.759 22.0729 202.435 23.5157 201.449 25.4219C200.475 27.3281 199.987 29.6667 199.987 32.4375C199.987 35.2083 200.475 37.5469 201.449 39.4531C202.435 41.3593 203.759 42.8021 205.42 43.7812C207.092 44.7603 208.959 45.25 211.019 45.25C212.148 45.25 213.233 45.1041 214.274 44.8125C215.316 44.5208 216.263 44.0885 217.116 43.5156C217.98 42.9324 218.711 42.2186 219.309 41.375C219.918 40.5209 220.344 39.5416 220.588 38.4375H224.708C224.398 40.0729 223.833 41.5365 223.014 42.8281C222.194 44.1197 221.175 45.2188 219.957 46.125C218.739 47.0208 217.371 47.7031 215.854 48.1719C214.347 48.6406 212.735 48.875 211.019 48.875C208.117 48.875 205.536 48.2083 203.276 46.875C201.017 45.5417 199.239 43.6458 197.943 41.1875C196.647 38.7292 195.999 35.8125 195.999 32.4375C195.999 29.0625 196.647 26.1458 197.943 23.6875C199.239 21.2292 201.017 19.3333 203.276 18C205.536 16.6667 208.117 16 211.019 16ZM466.845 16C468.639 16 470.312 16.2552 471.862 16.7656C473.424 17.2656 474.814 17.9792 476.032 18.9062C477.262 19.8229 478.287 20.9219 479.106 22.2031C479.926 23.4739 480.491 24.8855 480.801 26.4375H476.548C476.182 25.3855 475.701 24.4427 475.103 23.6094C474.516 22.7657 473.812 22.0469 472.992 21.4531C472.184 20.8594 471.264 20.4062 470.234 20.0938C469.204 19.7813 468.074 19.625 466.845 19.625C464.829 19.625 462.996 20.1146 461.346 21.0938C459.695 22.0729 458.383 23.5156 457.408 25.4219C456.434 27.3281 455.946 29.6667 455.946 32.4375C455.946 35.2083 456.439 37.5469 457.425 39.4531C458.411 41.3594 459.745 42.8021 461.429 43.7812C463.112 44.7604 465.006 45.2499 467.11 45.25C469.06 45.25 470.777 44.8593 472.261 44.0781C473.756 43.2865 474.919 42.1719 475.75 40.7344C476.556 39.3484 476.975 37.7286 477.01 35.875H468.041V32.4375H481V47H478V44.4023C476.983 45.5739 475.746 46.5341 474.288 47.2812C472.206 48.3438 469.813 48.875 467.11 48.875C464.098 48.875 461.451 48.2083 459.169 46.875C456.898 45.5417 455.126 43.6458 453.853 41.1875C452.59 38.7292 451.959 35.8125 451.959 32.4375C451.959 29.9062 452.319 27.6302 453.039 25.6094C453.77 23.5782 454.8 21.8489 456.129 20.4219C457.458 18.9948 459.031 17.901 460.848 17.1406C462.664 16.3803 464.663 16 466.845 16ZM155.39 16.4375C158.059 16.4375 160.241 16.8907 161.936 17.7969C163.641 18.6927 164.904 19.9063 165.724 21.4375C166.543 22.9687 166.953 24.6771 166.953 26.5625C166.953 28.4479 166.543 30.1615 165.724 31.7031C164.915 33.2447 163.663 34.474 161.969 35.3906C160.274 36.2968 158.103 36.75 155.456 36.75H148.014V48.4375H143.894V16.4375H155.39ZM195.031 48.4375H190.712L187.291 39.375H173.531L170.11 48.4375H165.791L178.284 16.4375H182.538L195.031 48.4375ZM250.498 19.875H234.083V30.6875H249.435V34.125H234.083V45H250.764V48.4375H229.963V16.4375H250.498V19.875ZM276.772 16.4375C279.442 16.4375 281.624 16.8906 283.318 17.7969C285.024 18.6927 286.287 19.9063 287.106 21.4375C287.926 22.9687 288.336 24.6771 288.336 26.5625C288.336 28.4479 287.926 30.1615 287.106 31.7031C286.298 33.2448 285.046 34.474 283.352 35.3906C281.657 36.2969 279.486 36.75 276.839 36.75H269.396V48.4375H265.275V16.4375H276.772ZM297.689 45H313.507V48.4375H293.569V16.4375H297.689V45ZM345.946 48.4375H341.627L338.206 39.375H324.446L321.025 48.4375H316.706L329.199 16.4375H333.453L345.946 48.4375ZM371.438 41.625H371.771V16.4375H375.824V48.4375H371.837L354.296 23.3125H353.963V48.4375H349.843V16.4375H353.83L371.438 41.625ZM402.26 41.625H402.593V16.4375H406.646V48.4375H402.659L385.118 23.3125H384.785V48.4375H380.665V16.4375H384.652L402.26 41.625ZM416.607 48.4375H412.487V16.4375H416.607V48.4375ZM444.061 41.625H444.393V16.4375H448.446V48.4375H444.459L426.918 23.3125H426.586V48.4375H422.466V16.4375H426.453L444.061 41.625ZM174.829 35.9375H185.993L180.544 21.5H180.278L174.829 35.9375ZM325.744 35.9375H336.908L331.459 21.5H331.193L325.744 35.9375ZM148.014 33.3125H155.323C157.151 33.3125 158.619 33.0156 159.727 32.4219C160.834 31.8281 161.637 31.026 162.136 30.0156C162.645 28.9948 162.899 27.8437 162.899 26.5625C162.899 25.2813 162.645 24.1354 162.136 23.125C161.637 22.1147 160.829 21.3229 159.71 20.75C158.591 20.1667 157.107 19.875 155.257 19.875H148.014V33.3125ZM269.396 33.3125H276.706C278.533 33.3125 280.001 33.0155 281.108 32.4219C282.216 31.8281 283.019 31.026 283.518 30.0156C284.027 28.9948 284.282 27.8437 284.282 26.5625C284.282 25.2813 284.027 24.1354 283.518 23.125C283.019 22.1146 282.21 21.3229 281.092 20.75C279.973 20.1668 278.489 19.875 276.64 19.875H269.396V33.3125ZM57 25H70V13H57V25Z" fill="white"/>
</svg>

